<svg xmlns="https://www.w3.org/2000/svg" id="svgSprite"><symbol id="eye" viewBox="0 0 1024 1024"><path d="M515.472 321.408c-106.032 0-192 85.968-192 192 0 106.016 85.968 192 192 192s192-85.968 192-192-85.968-192-192-192zm0 320c-70.576 0-129.473-58.816-129.473-129.393s57.424-128 128-128c70.592 0 128 57.424 128 128s-55.935 129.393-126.527 129.393zm508.208-136.832c-.368-1.616-.207-3.325-.688-4.91-.208-.671-.624-1.055-.864-1.647-.336-.912-.256-1.984-.72-2.864-93.072-213.104-293.663-335.76-507.423-335.76S95.617 281.827 2.497 494.947c-.4.897-.336 1.824-.657 2.849-.223.624-.687.975-.895 1.567-.496 1.616-.304 3.296-.608 4.928-.591 2.88-1.135 5.68-1.135 8.592 0 2.944.544 5.664 1.135 8.591.32 1.6.113 3.344.609 4.88.208.72.672 1.024.895 1.68.336.88.256 1.968.656 2.848 93.136 213.056 295.744 333.712 509.504 333.712 213.776 0 416.336-120.4 509.44-333.505.464-.912.369-1.872.72-2.88.224-.56.655-.976.848-1.6.496-1.568.336-3.28.687-4.912.56-2.864 1.088-5.664 1.088-8.624 0-2.816-.528-5.6-1.104-8.497zM512 800.595c-181.296 0-359.743-95.568-447.423-287.681 86.848-191.472 267.68-289.504 449.424-289.504 181.68 0 358.496 98.144 445.376 289.712C872.561 704.53 693.744 800.595 512 800.595z"/></symbol><symbol id="chart" viewBox="0 0 1024 1024"><path d="M272.064 319.984H48c-17.68 0-32 14.32-32 32V992c0 17.68 14.32 32 32 32h224.064c17.68 0 32-14.32 32-32V351.984c0-17.68-14.32-32-32-32zm-32 640.016H80V383.984h160.064V960zm383.68-449.744h-224.08c-17.68 0-32 14.32-32 32V992c0 17.68 14.32 32 32 32h224.08c17.68 0 32-14.32 32-32V542.256c0-17.696-14.304-32-32-32zm-32 449.744h-160.08V574.256h160.08V960zM976 0H752.272c-17.68 0-32 14.32-32 32v960c0 17.68 14.32 32 32 32H976c17.68 0 32-14.32 32-32V32c0-17.68-14.32-32-32-32zm-32 960H784.272V64H944v896z"/></symbol><symbol id="cursor-move" viewBox="0 0 1024 1024"><path d="M1016.4 496.64l-8.48-8.08c-.16-.16-.335-.224-.528-.367L877.648 369.76c-9.344-8.945-24.448-8.945-33.824 0l-5.488 8.064c-9.344 8.945-6.304 23.408 3.04 32.336l76.464 69.344H546.496V106.16l69.343 76.464c8.945 9.344 23.409 12.384 32.336 3.023l8.065-5.471c8.944-9.376 8.944-24.481 0-33.841L543.072 22.368a31.874 31.874 0 0 0-12.32-13.296l-1.423-1.488C524.897 2.912 518.993.576 513.105.608c-5.904-.032-11.776 2.304-16.288 6.976l-8.096 8.463c-.16.16-.176.369-.336.544L372.881 144.335c-8.927 9.329-8.927 24.449 0 33.825l8.065 5.471c8.928 9.344 23.424 6.32 32.368-3.024l69.152-77.105v375.984H106.162l76.464-69.343c9.344-8.945 12.384-23.409 3.04-32.336l-5.471-8.065c-9.36-8.944-24.497-8.944-33.84 0L22.37 482.926a31.957 31.957 0 0 0-13.28 12.29l-1.489 1.423C2.914 501.087.593 506.992.626 512.88c-.016 5.905 2.288 11.777 6.976 16.288l8.464 8.096c.16.16.368.176.528.336l127.744 115.504c9.344 8.928 24.464 8.928 33.84 0l5.472-8.064c9.344-8.945 6.304-23.44-3.04-32.369l-77.12-69.152h379.008v376.96l-69.153-77.103c-8.944-9.344-23.44-12.369-32.368-3.025l-8.064 5.472c-8.928 9.376-8.928 24.496 0 33.824l115.504 127.744c.16.176.192.368.336.528l8.095 8.48c4.512 4.673 10.384 7.009 16.288 6.976 5.873.033 11.777-2.303 16.225-6.975l8.096-8.48c.16-.16.224-.337.368-.529l118.432-129.744c8.944-9.344 8.944-24.464 0-33.824l-8.065-5.488c-8.944-9.344-23.408-6.304-32.335 3.04l-69.344 76.464V543.502H920.48l-77.105 69.152c-9.343 8.944-12.368 23.44-3.024 32.368l5.472 8.064c9.376 8.928 24.496 8.928 33.824 0l127.744-115.504c.176-.175.368-.19.528-.334l8.48-8.096c4.672-4.496 7.008-10.368 6.976-16.288.032-5.857-2.304-11.777-6.975-16.225z"/></symbol><symbol id="close" viewBox="0 0 1024 1024"><path d="M512 0C229.232 0 0 229.232 0 512c0 282.784 229.232 512 512 512 282.784 0 512-229.216 512-512C1024 229.232 794.784 0 512 0zm0 961.008c-247.024 0-448-201.984-448-449.01 0-247.024 200.976-448 448-448s448 200.977 448 448-200.976 449.01-448 449.01zm181.008-630.016c-12.496-12.496-32.752-12.496-45.248 0L512 466.752l-135.76-135.76c-12.496-12.496-32.752-12.496-45.264 0-12.496 12.496-12.496 32.752 0 45.248L466.736 512l-135.76 135.76c-12.496 12.48-12.496 32.769 0 45.249 12.496 12.496 32.752 12.496 45.264 0L512 557.249l135.76 135.76c12.496 12.496 32.752 12.496 45.248 0 12.496-12.48 12.496-32.769 0-45.249L557.248 512l135.76-135.76c12.512-12.512 12.512-32.768 0-45.248z"/></symbol><symbol id="equalizer" viewBox="0 0 1024 1024"><path d="M160.048 387.872V32c0-17.664-14.336-32-32-32s-32 14.336-32 32v355.84C40.72 402.096-.352 452.288-.352 512c0 59.727 41.072 109.903 96.4 124.176V992c0 17.664 14.336 32 32 32s32-14.336 32-32V636.144c55.28-14.304 96.305-64.447 96.305-124.144 0-59.68-41.025-109.84-96.305-124.128zm-31.632 188.16c-.112 0-.24-.03-.368-.03-.144 0-.272.032-.415.048-35.153-.208-63.697-28.848-63.697-64.048 0-35.184 28.56-63.84 63.712-64.033.128 0 .272.033.4.033s.24-.033.368-.033c35.136.224 63.664 28.864 63.664 64.032 0 35.183-28.528 63.807-63.664 64.031zm415.648 3.842l-.001-547.872c0-17.664-14.336-32-32-32s-32 14.336-32 32v547.84c-55.328 14.273-96.4 64.433-96.4 124.16s41.072 109.903 96.4 124.176v163.824c0 17.664 14.336 32 32 32s32-14.336 32-32V828.146c55.264-14.304 96.288-64.447 96.288-124.144-.016-59.664-41.023-109.824-96.287-124.128zm-31.649 188.16c-.128 0-.24-.031-.368-.031-.144 0-.272.032-.415.048-35.153-.208-63.697-28.848-63.697-64.048 0-35.216 28.609-63.872 63.792-64.032.113 0 .225.032.337.032.096 0 .192-.032.288-.032 35.168.192 63.744 28.832 63.744 64.032 0 35.183-28.529 63.807-63.681 64.031zm415.648-572.159l-.001-163.871c0-17.664-14.336-32-32-32-17.68 0-32 14.336-32 32v163.84c-55.328 14.256-96.4 64.432-96.4 124.159s41.072 109.92 96.4 124.176v547.824c0 17.664 14.32 32 32 32 17.664 0 32-14.336 32-32V444.147c55.264-14.304 96.288-64.447 96.288-124.144-.016-59.664-41.023-109.824-96.287-124.128zm-31.649 188.161c-.128 0-.24-.031-.352-.031-.143 0-.287.032-.415.032-35.152-.192-63.712-28.832-63.712-64.032 0-35.184 28.56-63.84 63.696-64.032.143 0 .287.032.415.032s.24-.032.352-.032c35.136.24 63.664 28.864 63.664 64.032.033 35.183-28.496 63.807-63.648 64.031z"/></symbol><symbol id="grid" viewBox="0 0 1024 1024"><path d="M960 1024H640c-35.344 0-64-28.656-64-64V640c0-35.344 28.656-64 64-64h320c35.344 0 64 28.656 64 64v320c0 35.344-28.656 64-64 64zm0-384H640v320h320V640zm0-192H640c-35.344 0-64-28.656-64-64V64c0-35.344 28.656-64 64-64h320c35.344 0 64 28.656 64 64v320c0 35.344-28.656 64-64 64zm0-384H640v320h320V64zm-576 960H64c-35.344 0-64-28.656-64-64V640c0-35.344 28.656-64 64-64h320c35.344 0 64 28.656 64 64v320c0 35.344-28.656 64-64 64zm0-384H64v320h320V640zm0-192H64c-35.344 0-64-28.656-64-64V64C0 28.656 28.656 0 64 0h320c35.344 0 64 28.656 64 64v320c0 35.344-28.656 64-64 64zm0-384H64v320h320V64z"/></symbol><symbol id="search" viewBox="0 0 1024 1024"><path d="M1014.64 969.04L703.71 656.207c57.952-69.408 92.88-158.704 92.88-256.208 0-220.912-179.088-400-400-400s-400 179.088-400 400 179.088 400 400 400c100.368 0 192.048-37.056 262.288-98.144l310.496 312.448c12.496 12.497 32.769 12.497 45.265 0 12.48-12.496 12.48-32.752 0-45.263zM396.59 736.527c-185.856 0-336.528-150.672-336.528-336.528S210.734 63.471 396.59 63.471c185.856 0 336.528 150.672 336.528 336.528S582.446 736.527 396.59 736.527z"/></symbol><symbol id="menu" viewBox="0 0 1024 1024"><path d="M27 193.6c-8.2-8.2-12.2-18.6-12.2-31.2s4-23 12.2-31.2S45.6 119 58.2 119h912.4c12.6 0 23 4 31.2 12.2s12.2 18.6 12.2 31.2-4 23-12.2 31.2-18.6 12.2-31.2 12.2H58.2c-12.6 0-23-4-31.2-12.2zm974.8 285.2c8.2 8.2 12.2 18.6 12.2 31.2s-4 23-12.2 31.2-18.6 12.2-31.2 12.2H58.2c-12.6 0-23-4-31.2-12.2S14.8 522.6 14.8 510s4-23 12.2-31.2 18.6-12.2 31.2-12.2h912.4c12.6 0 23 4 31.2 12.2zm0 347.4c8.2 8.2 12.2 18.6 12.2 31.2s-4 23-12.2 31.2-18.6 12.2-31.2 12.2H58.2c-12.6 0-23-4-31.2-12.2S14.8 870 14.8 857.4s4-23 12.2-31.2S45.6 814 58.2 814h912.4c12.6 0 23 4.2 31.2 12.2z"/></symbol><symbol id="graph" viewBox="0 0 1024 1024"><path d="M944 224c-44.192 0-79.999 35.824-79.999 80 0 9.072 1.84 17.632 4.607 25.76L673.6 497.68C659.92 486.784 642.848 480 624 480c-21.743 0-41.407 8.736-55.808 22.816l-152.752-76.48C412.465 384.848 378.241 352 336 352c-44.175 0-80 35.824-80 80 0 12.096 2.88 23.44 7.68 33.712L107.936 645.296C99.2 642.032 89.872 640 80 640c-44.176 0-80 35.824-80 80s35.824 80 80 80 80-35.824 80-80c0-10.64-2.176-20.767-5.952-30.048l158.272-181.92C319.856 510.368 327.696 512 336 512c23.28 0 44.047-10.112 58.671-26l149.408 74.912C544.608 604.656 580.127 640 624 640c44.193 0 80-35.824 80-80 0-1.424-.336-2.752-.416-4.16L911.68 377.072C921.584 381.456 932.463 384 944 384c44.193 0 80-35.808 80-80 0-44.176-35.807-80-79.999-80z"/></symbol><symbol id="arrow-right" viewBox="0 0 1024 1024"><path d="M271.653 1023.192c-8.685 0-17.573-3.432-24.238-10.097-13.33-13.33-13.33-35.144 0-48.474L703.67 508.163 254.08 58.573c-13.33-13.331-13.33-35.145 0-48.475 13.33-13.33 35.143-13.33 48.473 0L776.38 483.925c13.33 13.33 13.33 35.143 0 48.473l-480.492 480.694c-6.665 6.665-15.551 10.099-24.236 10.099z"/></symbol><symbol id="arrow-left" viewBox="0 0 1024 1024"><path d="M752.145 0c8.685 0 17.572 3.434 24.237 10.099 13.33 13.33 13.33 35.143 0 48.473L320.126 515.03l449.591 449.591c13.33 13.33 13.33 35.144 0 48.474-13.33 13.33-35.142 13.33-48.472 0L247.418 539.268c-13.33-13.33-13.33-35.144 0-48.474L727.91 10.1C734.575 3.435 743.46.002 752.146.002z"/></symbol><symbol id="trash" viewBox="0 0 1024 1024"><path d="M896.8 159.024l-225.277.001V71.761c0-40.528-33.008-72.496-73.536-72.496H426.003c-40.528 0-73.52 31.968-73.52 72.496v87.264h-225.28c-17.665 0-32 14.336-32 32s14.335 32 32 32h44.015l74.24 739.92c3.104 34.624 32.608 61.776 67.136 61.776h398.8c34.528 0 64-27.152 67.088-61.472l74.303-740.24h44.016c17.68 0 32-14.336 32-32s-14.32-31.985-32-31.985zM416.482 71.762c0-5.232 4.271-9.505 9.52-9.505h171.984c5.248 0 9.536 4.273 9.536 9.505v87.264h-191.04zm298.288 885.44c-.16 1.777-2.256 3.536-3.376 3.536h-398.8c-1.12 0-3.232-1.744-3.425-3.84l-73.632-733.856H788.45z"/></symbol><symbol id="create" viewBox="0 0 1024 1024"><path d="M799.344 960.288h-736v-800h449.6l64.704-62.336-1.664-1.664H63.344c-35.344 0-64 28.656-64 64v800c0 35.344 28.656 64 64 64h736c35.344 0 64-28.656 64-64V491.632l-64 61.088v407.568zM974.224 41.44C945.344 13.76 913.473-.273 879.473-.273c-53.216 0-92.032 34.368-102.592 44.897-14.976 14.784-439.168 438.353-439.168 438.353-3.328 3.391-5.76 7.535-7.008 12.143-11.488 42.448-69.072 230.992-69.648 232.864-2.976 9.664-.32 20.193 6.8 27.217a26.641 26.641 0 0 0 18.913 7.84c2.752 0 5.52-.4 8.239-1.248 1.952-.656 196.496-63.569 228.512-73.12 4.224-1.248 8.048-3.536 11.216-6.624 20.208-19.936 410.112-403.792 441.664-436.384 32.624-33.664 48.847-68.657 48.223-104.097-.591-35.008-17.616-68.704-50.4-100.128zm-43.791 159.679c-17.808 18.368-157.249 156.16-414.449 409.536l-19.68 19.408c-29.488 9.12-100.097 31.808-153.473 49.024 17.184-56.752 37.808-125.312 47.008-157.743C444.8 466.464 808.223 103.6 822.03 89.968c2.689-2.689 27.217-26.257 57.44-26.257 17.153 0 33.681 7.824 50.465 23.92 20.065 19.248 30.4 37.744 30.689 55.024.32 17.792-9.84 37.456-30.191 58.464z"/></symbol><symbol id="add" viewBox="0 0 1024 1024"><path d="M512 0C229.232 0 0 229.232 0 512c0 282.784 229.232 512 512 512 282.784 0 512-229.216 512-512C1024 229.232 794.784 0 512 0zm0 961.008c-247.024 0-448-201.984-448-449.01 0-247.024 200.976-448 448-448s448 200.977 448 448-200.976 449.01-448 449.01zM736 480H544V288c0-17.664-14.336-32-32-32s-32 14.336-32 32v192H288c-17.664 0-32 14.336-32 32s14.336 32 32 32h192v192c0 17.664 14.336 32 32 32s32-14.336 32-32V544h192c17.664 0 32-14.336 32-32s-14.336-32-32-32z"/></symbol><symbol id="warning" viewBox="0 0 1024 1024"><path d="M480 674V192c0-18 14-32 32-32s32 14 32 32v482h-64zm0 63h64v60h-64v-60zM0 512C0 229 229 0 512 0s512 229 512 512-229 512-512 512S0 795 0 512zm961 0c0-247-202-448-449-448S64 265 64 512s201 448 448 448 449-201 449-448z"/></symbol><symbol id="checkmark" viewBox="0 0 1024 1024"><path d="M512 0C229.232 0 0 229.232 0 512c0 282.784 229.232 512 512 512 282.784 0 512-229.216 512-512C1024 229.232 794.784 0 512 0zm0 961.008c-247.024 0-448-201.984-448-449.01 0-247.024 200.976-448 448-448s448 200.977 448 448-200.976 449.01-448 449.01zm204.336-636.352L415.935 626.944l-135.28-135.28c-12.496-12.496-32.752-12.496-45.264 0-12.496 12.496-12.496 32.752 0 45.248l158.384 158.4c12.496 12.48 32.752 12.48 45.264 0 1.44-1.44 2.673-3.009 3.793-4.64l318.784-320.753c12.48-12.496 12.48-32.752 0-45.263-12.512-12.496-32.768-12.496-45.28 0z"/></symbol><symbol id="picture" viewBox="0 0 1024 1024"><path d="M960 79.904H64c-35.184 0-64 28.816-64 64v736.192c0 35.184 28.816 64 64 64h896c35.184 0 64-28.816 64-64V143.904c0-35.184-28.816-64-64-64zm0 800.193l-895.999-.001v-188.56l256.848-248.912L585.633 707.12c10.912 13.248 30.336 11.568 44.128 1.12l116.88-105.808 210.8 216.384c.8.8 1.695 1.391 2.56 2.08v59.2zm.001-150.305L771.97 537.376c-11.408-11.248-29.28-12.4-41.937-2.752l-120.56 105.024-264.943-262.08a32.09 32.09 0 0 0-22.688-11.6c-8.816-.32-17.505 2.56-23.969 8.624l-233.872 227.6V143.904h896v585.888zM736.002 400.128c35.28 0 63.84-28.608 63.84-63.84 0-35.217-28.56-63.825-63.84-63.825s-63.84 28.608-63.84 63.824c0 35.233 28.56 63.841 63.84 63.841z"/></symbol><symbol id="map" viewBox="0 0 1024 1024"><path d="M993.184 135.008L672.223 1.939l-319.44 126.432L30.815 2.003c-2.752-.816-5.44-1.12-7.968-1.12C9.712.818 0 10.626 0 25.378v830c0 17.568 13.872 35.872 30.816 40.56l322.336 127.184L672.16 893.618l321.024 126.128c2.752.752 5.44 1.12 7.969 1.12 13.12 0 22.847-9.744 22.847-24.495V175.635c0-17.569-13.872-35.89-30.816-40.625zm-609.185 46.131l256-100.304v761.504l-256 101.184V181.139zm-320-94.448l256 94.577v761.76l-256-104.272V86.692zm896 851.314l-256-96.384V81.797l256 110.384v745.824z"/></symbol><symbol id="flag" viewBox="0 0 1024 1024"><path d="M680 95.328c-160 0-202.655-96-405.312-96C144-.672 64 98.016 64 98.016v894.656c0 17.665 14.336 32 32 32s32-14.335 32-32V584.8c33.76-21.776 80.336-41.472 138.688-41.472 202.656 0 261.312 96 421.312 96s272-96 272-96v-544s-120 96-280 96zM896.001 510.72c-36.16 23.584-112.784 64.606-208 64.606-62.912 0-105.84-17.263-160.224-39.135-66.272-26.64-141.408-56.864-261.088-56.864-54.688 0-101.072 13.76-138.688 32.16V124.017c24.096-21.92 76.624-60.688 146.688-60.688 94.112 0 147.088 22.848 203.184 47.008 55.872 24.08 113.664 48.992 202.128 48.992 85.248 0 160.128-23.568 216-48.912V510.72z"/></symbol><symbol id="drop" viewBox="0 0 1024 1024"><path d="M510.4 1022.704c-193.312 0-350.592-155.12-350.592-345.776 0-222.688 311.632-644.848 324.912-662.72a31.98 31.98 0 0 1 25.473-12.913c11.183-.096 19.567 4.593 25.663 12.56 13.408 17.537 328.336 432.226 328.336 663.058 0 190.672-158.72 345.791-353.792 345.791zm.352-935.008c-74.4 105.664-286.943 422.064-286.943 589.217 0 155.376 128.56 281.776 286.592 281.776 159.776 0 289.776-126.4 289.776-281.776.016-173.36-214.145-485.024-289.425-589.217z"/></symbol><symbol id="settings" viewBox="0 0 1024 1024"><path d="M960.496 415.056l-82.129-18.224c-6.4-20.48-14.784-40.08-24.4-58.927l44.431-74.032c16.592-26.512 24.976-65.52 0-90.512l-45.28-45.248c-24.976-24.992-67.151-20.496-92.623-2.832l-72.032 45.887c-18.689-9.696-38.225-18-58.529-24.56l-18.431-83.12C605.999 33.009 579.343 0 543.999 0h-64c-35.344 0-57.008 33.504-64 64l-20.528 82.128c-21.68 6.912-42.496 15.744-62.336 26.208l-73.84-47.024c-25.456-17.664-67.648-22.16-92.624 2.832l-45.264 45.248c-24.992 25.008-16.608 64 0 90.512l46.752 77.92c-8.767 17.664-16.544 35.936-22.544 55.024l-82.112 18.224C33.007 420.56 0 447.216 0 482.56v64c0 35.344 33.504 57.008 64 64l83.152 20.784c5.745 17.632 12.928 34.56 21.056 50.976l-46.8 78c-16.591 26.496-24.975 65.504 0 90.496l45.28 45.248c24.976 25.008 67.152 20.496 92.624 2.847l74-47.152c19.952 10.528 40.88 19.44 62.704 26.337L416.495 960c7.008 30.496 28.656 64 64 64h64c35.344 0 62-33.007 67.504-63.504l18.464-83.343c20.096-6.496 39.376-14.689 57.84-24.257l72.192 46c25.472 17.664 67.664 22.16 92.624-2.848L898.4 850.8c24.976-25.008 16.592-64 0-90.496l-44.463-74.128c8.944-17.568 16.688-35.84 22.912-54.848L960 610.56c30.496-7.008 64-28.656 64-64v-64c0-35.344-32.992-62-63.504-67.504zm-.465 126.992c-2.72 1.952-7.842 4.635-14.338 6.139l-118.656 29.631-11.008 33.632c-4.975 15.153-11.407 30.529-19.119 45.712l-16.064 31.569 62.688 104.528c4 6.4 5.872 12.127 6.432 15.503l-42.096 42.033c-4.064-1.28-8.688-2.945-10.912-4.464l-105.344-67.184-32.752 16.945c-15.776 8.192-31.969 14.976-48.097 20.192l-34.88 11.28-26.368 119.12c-1.216 6.368-4.624 11.504-6.96 13.344h-57.6c-1.951-2.72-4.623-7.84-6.112-14.32L449.39 827.9l-34.095-10.817c-17.569-5.536-35.088-12.912-52.144-21.904l-32.912-17.376-105.36 67.152c-4.304 2.912-8.912 4.56-13.088 4.56l-41.968-40.847c.56-3.311 2.304-8.783 5.792-14.367l65.456-109.056-15.568-31.344c-7.264-14.784-13.024-28.656-17.504-42.4l-10.992-33.664L79.518 548.46c-7.392-1.68-12.736-4.432-15.52-6.4v-59.504c.032.016.08.032.145.032 1.072 0 6.336-3.745 10.72-4.544l120.72-26.737 11.087-35.28c4.512-14.368 10.672-29.344 18.816-45.775l15.568-31.36-64.767-107.92c-4.016-6.432-5.872-12.16-6.432-15.52l42.08-42.065c4.08 1.312 8.672 2.96 10.88 4.48l107.312 68.4 32.88-17.344c16.88-8.895 34.336-16.239 51.904-21.823l34.016-10.832L478.11 79.501c1.697-7.391 4.416-12.735 6.4-15.52H544c-.433.657 3.68 6.24 4.527 10.865l26.88 121.408 34.848 11.264c16.336 5.28 32.752 12.16 48.72 20.448l32.752 17.008 103.152-65.712c4.32-2.945 8.944-4.576 13.088-4.576l42 40.816c-.56 3.328-2.32 8.816-5.808 14.416l-63.344 105.488 16.16 31.616c8.72 17.056 15.376 33.056 20.32 48.928l11.056 35.344L946.64 477.55c7.153 1.328 12.721 5.456 13.905 7.696zM512.43 319.674c-106.272 0-192.736 86.288-192.736 192.32 0 106.016 86.464 192.304 192.736 192.304s192.736-86.288 192.736-192.304c0-106.032-86.464-192.32-192.736-192.32zm-.432 320.32c-70.576 0-128-57.424-128-128 0-70.592 57.424-128 128-128 70.592 0 128 57.408 128 128 0 70.576-57.424 128-128 128z"/></symbol><symbol id="user" viewBox="0 0 1024 1024"><path d="M511.728 64c108.672 0 223.92 91.534 223.92 159.854v159.92c0 61.552-25.6 179.312-94.256 233.376a63.99 63.99 0 0 0-23.968 57.809c2.624 22.16 16.592 41.312 36.848 50.625l278.496 132.064c2.176.992 26.688 5.104 26.688 39.344l.032 62.464L64 959.504V894.56c0-25.44 19.088-33.425 26.72-36.945l281.023-132.624c20.16-9.248 34.065-28.32 36.769-50.32 2.72-22-6.16-43.84-23.456-57.712-66.48-53.376-97.456-170.704-97.456-233.185v-159.92C287.615 157.007 404.016 64 511.728 64zm0-64.002c-141.312 0-288.127 117.938-288.127 223.857v159.92c0 69.872 31.888 211.248 121.392 283.088l-281.04 132.64S.001 827.999.001 863.471v96.032c0 35.344 28.64 63.968 63.951 63.968h895.552c35.344 0 63.968-28.624 63.968-63.968v-96.032c0-37.6-63.968-63.968-63.968-63.968L681.008 667.439c88.656-69.776 118.656-206.849 118.656-283.665v-159.92c0-105.92-146.64-223.855-287.936-223.855z"/></symbol><symbol id="notifications" viewBox="0 0 1024 1024"><path d="M905.616 711.888c-37.344-45.424-88.48-109.742-88.48-175.358V327.57c0-180.016-134.64-326.479-306.688-326.479-172.08 0-305.664 146.464-305.664 326.479v208.96c0 64.512-55.489 125.487-90.672 172.799-31.649 42.512-56.624 76.096-39.76 109.664 14.832 29.536 51.968 33.328 82.655 33.328h183.36c.048 94.208 76.448 170.576 170.672 170.576 94.24 0 170.641-76.368 170.688-170.576h187.664c19.52 0 65.152 0 80.863-33.2 15.857-33.616-9.52-64.513-44.64-107.232zm-394.609 243.97c-57.216 0-103.632-46.352-103.712-103.536h207.424c-.08 57.184-46.464 103.535-103.712 103.535zm358.384-171.665H157.006c-4.896 0-8.991-.16-12.367-.368 6.592-10.208 16.271-23.248 24.143-33.857 38.993-52.4 104.145-126.368 104.145-213.424v-208.96c0-142.464 103.04-258.352 237.521-258.352S749.01 185.12 749.01 327.584v208.96c0 90.016 60.08 165.248 103.968 218.608 7.392 8.993 16.24 19.76 23.12 28.96-2.033.048-4.273.08-6.705.08z"/></symbol><symbol id="layers" viewBox="0 0 1024 1024"><path d="M21.84 301.808l475.09 258.72a32.093 32.093 0 0 0 15.312 3.904 31.99 31.99 0 0 0 15.184-3.84l480.096-258.72c10.464-5.631 16.975-16.624 16.815-28.528a32.088 32.088 0 0 0-17.504-28.16L531.713 3.904c-9.055-4.592-19.744-4.624-28.88-.064L22.785 245.12c-10.624 5.343-17.44 16.16-17.632 28.064s6.256 22.944 16.687 28.624zM517.153 68.287l406.159 206.271L512.336 496.03 106.16 274.846zm484.187 412.031l-94.974-48.225-68.56 36.976 80 40.624-410.96 221.456-406.191-221.184 85.311-42.88-68.368-37.248-100.32 50.4c-10.624 5.344-17.44 16.16-17.633 28.065s6.256 22.944 16.688 28.624l475.088 258.72a32.092 32.092 0 0 0 15.312 3.903 31.99 31.99 0 0 0 15.184-3.84l480.096-258.72c10.464-5.631 16.975-16.624 16.815-28.528a31.996 31.996 0 0 0-17.487-28.143zm.01 223.999l-89.966-44.224-68.56 36.976 75.008 36.624-410.976 221.456-406.192-221.184 79.312-35.872-68.368-37.248-94.32 43.408C6.662 709.597-.154 720.413-.346 732.318s6.255 22.944 16.687 28.624l475.088 258.72a32.092 32.092 0 0 0 15.313 3.903 31.99 31.99 0 0 0 15.183-3.84l480.096-258.72c10.464-5.632 16.976-16.624 16.816-28.528a32.002 32.002 0 0 0-17.488-28.16z"/></symbol><symbol id="lock" viewBox="0 0 1024 1024"><path d="M800 384h-32V261.872C768 115.024 661.744 0 510.816 0 359.28 0 256 117.472 256 261.872V384h-32c-70.592 0-128 57.408-128 128v384c0 70.592 57.408 128 128 128h576c70.592 0 128-57.408 128-128V512c0-70.592-57.408-128-128-128zM320 261.872C320 152.784 394.56 64 510.816 64 625.872 64 704 150.912 704 261.872V384H320V261.872zM864.001 896c0 35.28-28.72 64-64 64h-576c-35.28 0-64-28.72-64-64V512c0-35.28 28.72-64 64-64h576c35.28 0 64 28.72 64 64v384zm-352-320c-35.344 0-64 28.656-64 64 0 23.632 12.96 44.032 32 55.12V800c0 17.664 14.336 32 32 32s32-14.336 32-32V695.12c19.04-11.088 32-31.504 32-55.12 0-35.344-28.656-64-64-64z"/></symbol><symbol id="people" viewBox="0 0 1024 1024"><path d="M746 835.28L544.529 723.678c74.88-58.912 95.216-174.688 95.216-239.601v-135.12c0-89.472-118.88-189.12-238.288-189.12-119.376 0-241.408 99.664-241.408 189.12v135.12c0 59.024 24.975 178.433 100.624 239.089L54 835.278S0 859.342 0 889.342v81.088c0 29.84 24.223 54.064 54 54.064h692c29.807 0 54.031-24.224 54.031-54.064v-81.087c0-31.808-54.032-54.064-54.032-54.064zm-9.967 125.215H64.002V903.28c4.592-3.343 11.008-7.216 16.064-9.536 1.503-.688 3.007-1.408 4.431-2.224l206.688-112.096c18.848-10.224 31.344-29.184 33.248-50.528s-7.008-42.256-23.712-55.664c-53.664-43.024-76.656-138.32-76.656-189.152V348.96c0-45.968 86.656-125.12 177.408-125.12 92.432 0 174.288 78.065 174.288 125.12v135.12c0 50.128-15.568 145.84-70.784 189.28a64.098 64.098 0 0 0-24.224 55.664 64.104 64.104 0 0 0 33.12 50.849l201.472 111.6c1.777.975 4.033 2.031 5.905 2.848 4.72 2 10.527 5.343 14.783 8.288v57.887zM969.97 675.936L765.505 564.335c74.88-58.912 98.224-174.688 98.224-239.601v-135.12c0-89.472-121.872-190.128-241.28-190.128-77.6 0-156.943 42.192-203.12 96.225 26.337 1.631 55.377 1.664 80.465 9.664 33.711-26.256 76.368-41.872 122.656-41.872 92.431 0 177.278 79.055 177.278 126.128v135.12c0 50.127-18.56 145.84-73.775 189.28a64.098 64.098 0 0 0-24.224 55.664 64.104 64.104 0 0 0 33.12 50.848l204.465 111.6c1.776.976 4.032 2.032 5.904 2.848 4.72 2 10.527 5.344 14.783 8.288v56.912H830.817c19.504 14.72 25.408 35.776 32.977 64h106.192c29.807 0 54.03-24.224 54.03-54.064V730.03c-.015-31.84-54.047-54.096-54.047-54.096z"/></symbol><symbol id="php-logo" viewBox="0 -1 100 50"><path d="m7.579 10.123 14.204 0c4.169 0.035 7.19 1.237 9.063 3.604 1.873 2.367 2.491 5.6 1.855 9.699-0.247 1.873-0.795 3.71-1.643 5.512-0.813 1.802-1.943 3.427-3.392 4.876-1.767 1.837-3.657 3.003-5.671 3.498-2.014 0.495-4.099 0.742-6.254 0.742l-6.36 0-2.014 10.07-7.367 0 7.579-38.001 0 0m6.201 6.042-3.18 15.9c0.212 0.035 0.424 0.053 0.636 0.053 0.247 0 0.495 0 0.742 0 3.392 0.035 6.219-0.3 8.48-1.007 2.261-0.742 3.781-3.321 4.558-7.738 0.636-3.71 0-5.848-1.908-6.413-1.873-0.565-4.222-0.83-7.049-0.795-0.424 0.035-0.83 0.053-1.219 0.053-0.353 0-0.724 0-1.113 0l0.053-0.053"/><path d="m41.093 0 7.314 0-2.067 10.123 6.572 0c3.604 0.071 6.289 0.813 8.056 2.226 1.802 1.413 2.332 4.099 1.59 8.056l-3.551 17.649-7.42 0 3.392-16.854c0.353-1.767 0.247-3.021-0.318-3.763-0.565-0.742-1.784-1.113-3.657-1.113l-5.883-0.053-4.346 21.783-7.314 0 7.632-38.054 0 0"/><path d="m70.412 10.123 14.204 0c4.169 0.035 7.19 1.237 9.063 3.604 1.873 2.367 2.491 5.6 1.855 9.699-0.247 1.873-0.795 3.71-1.643 5.512-0.813 1.802-1.943 3.427-3.392 4.876-1.767 1.837-3.657 3.003-5.671 3.498-2.014 0.495-4.099 0.742-6.254 0.742l-6.36 0-2.014 10.07-7.367 0 7.579-38.001 0 0m6.201 6.042-3.18 15.9c0.212 0.035 0.424 0.053 0.636 0.053 0.247 0 0.495 0 0.742 0 3.392 0.035 6.219-0.3 8.48-1.007 2.261-0.742 3.781-3.321 4.558-7.738 0.636-3.71 0-5.848-1.908-6.413-1.873-0.565-4.222-0.83-7.049-0.795-0.424 0.035-0.83 0.053-1.219 0.053-0.353 0-0.724 0-1.113 0l0.053-0.053"/></symbol><symbol id="js-logo" viewBox="0 0 32 32"><path d="M.384.67v31.296H31.68V.67H.384zm16.334 26.772c-.461.937-1.342 1.553-2.362 1.85-1.568.36-3.067.155-4.183-.515-.747-.458-1.33-1.163-1.725-1.975.794-.485 1.586-.973 2.38-1.458.021.009.083.122.167.268.303.509.565.869 1.08 1.121.506.172 1.615.283 2.044-.607.262-.452.178-1.936.178-3.545 0-2.529.012-5.016.012-7.576h2.927c0 2.688.015 5.383 0 8.067.006 1.645.149 3.14-.518 4.369zm12.144-.827c-1.017 3.481-6.691 3.594-8.957 1.294-.479-.541-.779-.824-1.065-1.449 1.205-.693 1.205-.693 2.377-1.371.637.979 1.226 1.517 2.285 1.737 1.437.175 2.883-.318 2.559-1.844-.333-1.247-2.942-1.55-4.718-2.883-1.803-1.211-2.225-4.153-.744-5.834.494-.622 1.336-1.086 2.219-1.309l.922-.119c1.77-.036 2.877.431 3.689 1.339.226.229.41.476.756 1.012-.943.601-.94.595-2.291 1.47-.289-.622-.767-1.012-1.273-1.181-.785-.238-1.776.021-1.981.851-.071.256-.056.494.057.916.318.726 1.386 1.041 2.344 1.481 2.758 1.119 3.689 2.317 3.918 3.745.22 1.229-.054 2.026-.095 2.145z"/></symbol><symbol id="love" viewBox="0 0 36 36"><path d="M35.885 11.833c0-5.45-4.418-9.868-9.867-9.868-3.308 0-6.227 1.633-8.018 4.129-1.791-2.496-4.71-4.129-8.017-4.129-5.45 0-9.868 4.417-9.868 9.868 0 .772.098 1.52.266 2.241C1.751 22.587 11.216 31.568 18 34.034c6.783-2.466 16.249-11.447 17.617-19.959.17-.721.268-1.469.268-2.242z"/></symbol></svg>