<svg xmlns="http://www.w3.org/2000/svg" id="svg-sprite">
    <symbol id="transgender" viewBox="0 0 512 512"><path d="M352 32v35h63.1l-81.4 80.5c-7.5-7.2-13.2-11-13.2-11C302.2 123.6 280 116 256 116c-30.2 0-57.6 12-77.8 31.4l-15.2-15 31.4-31.4-28.5-28.5-31.5 31.5-37.5-37H160V32H32v128h35V91.3l40.3 39.9-31.2 31.2 28.5 28.5 31.4-31.4 19.4 19.2c-7.3 14.9-11.5 31.7-11.5 49.5 0 54.8 39.5 100.4 91.1 110.2v45.3h-63V424h63v56h42v-56h63v-40.2h-63v-45.3c50.8-9.9 91.2-55.5 91.2-110.3 0-17.7-4.2-34.8-11.5-49.6L445 91.3V160h35V32H352zm-96 258c-35.3 0-64-28.7-64-64s28.7-64 64-64 64 28.7 64 64-28.7 64-64 64z"/></symbol>
    <symbol id="menu" viewBox="0 0 512 512"><path d="M64 384h384v-42.666H64V384zm0-106.666h384v-42.667H64v42.667zM64 128v42.665h384V128H64z"/></symbol>
    <symbol id="at" viewBox="0 0 512 512"><path d="M265.6 212.3c-10.5 0-18.5 4.4-24 13.2-5.5 8.8-9.1 22-10.8 39.6-.9 11.7 0 20.5 2.7 26.5s7.1 9 13.1 9c5.5 0 10.3-1.5 14.6-4.4 4.3-2.9 8.1-8.3 11.3-16.2l6.1-66c-2.2-.5-4.4-.9-6.5-1.2-2.3-.4-4.4-.5-6.5-.5z"/><path d="M256 48C141.1 48 48 141.1 48 256s93.1 208 208 208 208-93.1 208-208S370.9 48 256 48zm127.8 201.9c-.9 21.4-7.6 39.9-20 55.6-12.4 15.6-31 23.4-55.6 23.4-8.2 0-15.3-2.2-21.2-6.6-6-4.4-10.2-10.7-12.6-18.8-4.1 8.3-9.4 14.5-15.7 18.6-6.3 4.1-13.7 6.2-22.2 6.2-15.1 0-26.6-5.8-34.6-17.3s-10.9-26.8-8.8-45.9c2.6-24.4 10-44 22.2-58.7 12.2-14.7 27-22 44.4-22 12.2 0 22.1 1.3 29.5 3.8 7.4 2.5 15.6 5.7 24.5 11l-.5-.1h.8l-7.7 83.4c-.5 8.5.1 14.6 1.7 17.8 1.7 3.2 3.9 4.9 6.7 4.9 11.3 0 20.4-5.1 27.2-15.6 6.8-10.5 10.6-23.6 11.4-39.6 1.6-33-5.1-58.7-20.2-77.1-15.1-18.4-38.3-27.7-69.7-27.7-30.5 0-54.8 9.9-72.8 29.8s-27.7 46.9-29.3 81.2c-1.7 33.4 5.6 59.8 21.9 79.1 16.3 19.4 39.7 29.1 70.3 29.1 8.5 0 17.3-.9 26.5-2.7 9.1-1.8 17.1-4.1 23.7-6.8l5.8 24.2c-6.8 4.1-15.4 7.3-25.9 9.6-10.5 2.3-20.7 3.4-30.7 3.4-40.8 0-72.3-12.1-94.3-36.4-22-24.2-32.2-57.4-30.5-99.6 1.8-41.8 14.9-74.9 39.1-99.4 24.3-24.5 56.5-36.7 96.7-36.7 39.5 0 69.8 11.6 90.7 34.7 21.2 23.2 30.8 54.9 29.2 95.2z"/></symbol>
    <symbol id="keyboard-arrow-down" height="24" viewBox="0 0 24 24" width="24"><path d="M0 0h24v24H0V0z" fill="none"/><path d="M7.41 8.59L12 13.17l4.59-4.58L18 10l-6 6-6-6 1.41-1.41z"/></symbol>
    <symbol id="keyboard-arrow-up" height="24" viewBox="0 0 24 24" width="24"><path d="M0 0h24v24H0z" fill="none"/><path d="M7.41 15.41L12 10.83l4.59 4.58L18 14l-6-6-6 6z"/></symbol>
    <symbol id="arrow-forward" viewBox="0 0 512 512"><path d="M294.1 256L167 129c-9.4-9.4-9.4-24.6 0-33.9s24.6-9.3 34 0L345 239c9.1 9.1 9.3 23.7.7 33.1L201.1 417c-4.7 4.7-10.9 7-17 7s-12.3-2.3-17-7c-9.4-9.4-9.4-24.6 0-33.9l127-127.1z"/></symbol><symbol viewBox="0 0 512 512" id="home"><path d="M261.56,101.28a8,8,0,0,0-11.06,0L66.4,277.15a8,8,0,0,0-2.47,5.79L63.9,448a32,32,0,0,0,32,32H192a16,16,0,0,0,16-16V328a8,8,0,0,1,8-8h80a8,8,0,0,1,8,8l0,136a16,16,0,0,0,16,16h96.06a32,32,0,0,0,32-32l0-165.06a8,8,0,0,0-2.47-5.79Z"/><path d="M490.91,244.15l-74.8-71.56,0-108.59a16,16,0,0,0-16-16h-48a16,16,0,0,0-16,16l0,32L278.19,40.62C272.77,35.14,264.71,32,256,32h0c-8.68,0-16.72,3.14-22.14,8.63L21.16,244.13c-6.22,6-7,15.87-1.34,22.37A16,16,0,0,0,43,267.56L250.5,69.28a8,8,0,0,1,11.06,0L469.08,267.56a16,16,0,0,0,22.59-.44C497.81,260.76,497.3,250.26,490.91,244.15Z"/></symbol>
    <symbol id="heart" viewBox="0 0 512 512"><path d="M256 448l-30.164-27.211C118.718 322.442 48 258.61 48 179.095 48 114.221 97.918 64 162.4 64c36.399 0 70.717 16.742 93.6 43.947C278.882 80.742 313.199 64 349.6 64 414.082 64 464 114.221 464 179.095c0 79.516-70.719 143.348-177.836 241.694L256 448z"/></symbol>
    <symbol id="share" viewBox="0 0 512 512"><path d="M383.822 344.427c-16.045 0-31.024 5.326-41.721 15.979l-152.957-88.42c1.071-5.328 2.142-9.593 2.142-14.919 0-5.328-1.071-9.593-2.142-14.919l150.826-87.35c11.762 10.653 26.741 17.041 43.852 17.041 35.295 0 64.178-28.766 64.178-63.92C448 72.767 419.117 44 383.822 44c-35.297 0-64.179 28.767-64.179 63.92 0 5.327 1.065 9.593 2.142 14.919l-150.821 87.35c-11.767-10.654-26.741-17.041-43.856-17.041-35.296 0-63.108 28.766-63.108 63.92 0 35.153 28.877 63.92 64.178 63.92 17.115 0 32.089-6.389 43.856-17.042l151.891 88.421c-1.076 4.255-2.141 8.521-2.141 13.847 0 34.094 27.806 61.787 62.037 61.787 34.229 0 62.036-27.693 62.036-61.787.001-34.094-27.805-61.787-62.035-61.787z"/></symbol>
    <symbol id="paper-plane" viewBox="0 0 512 512"><path d="M452.1 49L52.3 265.3c-6 3.3-5.6 12.1.6 14.9l68.2 25.7c4 1.5 7.2 4.5 9 8.4l53 109.1c1 4.8 9.9 6.1 10 1.2l-8.1-90.2c.5-6.7 3-13 7.3-18.2l207.3-203.1c1.2-1.2 2.9-1.6 4.5-1.3 3.4.8 4.8 4.9 2.6 7.6L228 338c-4 6-6 11-7 18l-10.7 77.9c.9 6.8 6.2 9.4 10.5 3.3l38.5-45.2c2.6-3.7 7.7-4.5 11.3-1.9l99.2 72.3c4.7 3.5 11.4.9 12.6-4.9L463.8 58c1.5-6.8-5.6-12.3-11.7-9z"/></symbol>
    <symbol id="analytics" viewBox="0 0 512 512"><path d="M379.4 178.3l-87.2 133.4C299 320 303 330.5 303 342c0 26.5-21.5 48-48 48s-48-21.5-48-48c0-3 .3-6 .8-8.9l-57.6-33.5c-8.6 8.3-20.3 13.4-33.3 13.4-8.6 0-16.6-2.3-23.6-6.2L32 364.2v57.2c0 23.5 19.2 42.7 42.7 42.7h362.7c23.5 0 42.7-19.2 42.7-42.7V208.8l-58.6-38.9c-8.1 6.3-18.3 10.1-29.4 10.1-4.4 0-8.7-.6-12.7-1.7z"/><path d="M117 217c26.5 0 48 21.5 48 48 0 2.1-.2 4.2-.4 6.2l60.1 33.6c8.3-6.8 18.8-10.8 30.4-10.8 3.6 0 7.1.4 10.4 1.1l87.4-135.4c-5.6-7.8-8.9-17.4-8.9-27.8 0-26.5 21.5-48 48-48s48 21.5 48 48c0 3.9-.5 7.7-1.3 11.3l41.3 27.6V90.7c0-23.5-19.2-42.7-42.7-42.7H74.7C51.2 48 32 67.2 32 90.7V320l40-38.3c-1.9-5.2-3-10.8-3-16.7 0-26.5 21.5-48 48-48z"/></symbol>
    <symbol id="copy" viewBox="0 0 512 512"><path d="M296 48H176.5C154.4 48 136 65.4 136 87.5V96h-7.5C106.4 96 88 113.4 88 135.5v288c0 22.1 18.4 40.5 40.5 40.5h208c22.1 0 39.5-18.4 39.5-40.5V416h8.5c22.1 0 39.5-18.4 39.5-40.5V176L296 48zm0 44.6l83.4 83.4H296V92.6zm48 330.9c0 4.7-3.4 8.5-7.5 8.5h-208c-4.4 0-8.5-4.1-8.5-8.5v-288c0-4.1 3.8-7.5 8.5-7.5h7.5v255.5c0 22.1 10.4 32.5 32.5 32.5H344v7.5zm48-48c0 4.7-3.4 8.5-7.5 8.5h-208c-4.4 0-8.5-4.1-8.5-8.5v-288c0-4.1 3.8-7.5 8.5-7.5H264v128h128v167.5z"/></symbol>

    <symbol id="image" viewBox="0 0 512 512"><path d="M448 405.333V106.667C448 83.198 428.802 64 405.333 64H106.667C83.198 64 64 83.198 64 106.667v298.666C64 428.802 83.198 448 106.667 448h298.666C428.802 448 448 428.802 448 405.333zM181.333 288l53.334 64 74.666-96 96 128H106.667l74.666-96z"/></symbol>
    <symbol id="contact" viewBox="0 0 512 512"><path d="M256 48C141.6 48 48 141.6 48 256s93.6 208 208 208 208-93.6 208-208S370.4 48 256 48zm0 62.4c34.3 0 62.4 28.1 62.4 62.4s-28.1 62.4-62.4 62.4-62.4-28.1-62.4-62.4 28.1-62.4 62.4-62.4zm0 300.4c-52 0-97.8-27-124.8-66.6 1-41.6 83.2-64.5 124.8-64.5s123.8 22.9 124.8 64.5c-27 39.5-72.8 66.6-124.8 66.6z"/></symbol>
    <symbol id="arrow-dropright" viewBox="0 0 512 512"><path d="M192 128l128 128-128 128z"/></symbol>
    <symbol id="flag" viewBox="0 0 512 512"><path d="M396 83.2c-13.8 1.7-31.1 4.2-49.6 4.2-28.8 0-55-6.8-81.5-12.2C238 69.7 210.2 64 180.8 64c-58.6 0-78.5 12.1-80.6 13.4L96 80.3V448h48V269.8c9.7-1.2 21.9-2 36.9-2 27.3 0 52.8 10 79.8 15.5 27.6 5.6 56 11.5 86.9 11.5 18.4 0 34.6-2.4 48.4-4 7.5-.9 14-1.7 20-2.7V80.2c-5 1-12.5 2.1-20 3z"/></symbol>
    <symbol id="arrow-dropdown-circle" viewBox="0 0 512 512"><path d="M256 48C141.125 48 48 141.125 48 256s93.125 208 208 208 208-93.125 208-208S370.875 48 256 48zm0 272l-96-96h192l-96 96z"/></symbol>
    <symbol id="logo-facebook" viewBox="0 0 512 512"><path d="M426.8 64H85.2C73.5 64 64 73.5 64 85.2v341.6c0 11.7 9.5 21.2 21.2 21.2H256V296h-45.9v-56H256v-41.4c0-49.6 34.4-76.6 78.7-76.6 21.2 0 44 1.6 49.3 2.3v51.8h-35.3c-24.1 0-28.7 11.4-28.7 28.2V240h57.4l-7.5 56H320v152h106.8c11.7 0 21.2-9.5 21.2-21.2V85.2c0-11.7-9.5-21.2-21.2-21.2z"/></symbol>
    <symbol id="logo-youtube" viewBox="0 0 512 512"><path d="M508.6 148.8c0-45-33.1-81.2-74-81.2C379.2 65 322.7 64 265 64h-18c-57.6 0-114.2 1-169.6 3.6C36.6 67.6 3.5 104 3.5 149 1 184.6-.1 220.2 0 255.8c-.1 35.6 1 71.2 3.4 106.9 0 45 33.1 81.5 73.9 81.5 58.2 2.7 117.9 3.9 178.6 3.8 60.8.2 120.3-1 178.6-3.8 40.9 0 74-36.5 74-81.5 2.4-35.7 3.5-71.3 3.4-107 .2-35.6-.9-71.2-3.3-106.9zM207 353.9V157.4l145 98.2-145 98.3z"/></symbol>
    <symbol id="logo-linkedin" viewBox="0 0 512 512"><path d="M417.2 64H96.8C79.3 64 64 76.6 64 93.9V415c0 17.4 15.3 32.9 32.8 32.9h320.3c17.6 0 30.8-15.6 30.8-32.9V93.9C448 76.6 434.7 64 417.2 64zM183 384h-55V213h55v171zm-25.6-197h-.4c-17.6 0-29-13.1-29-29.5 0-16.7 11.7-29.5 29.7-29.5s29 12.7 29.4 29.5c0 16.4-11.4 29.5-29.7 29.5zM384 384h-55v-93.5c0-22.4-8-37.7-27.9-37.7-15.2 0-24.2 10.3-28.2 20.3-1.5 3.6-1.9 8.5-1.9 13.5V384h-55V213h55v23.8c8-11.4 20.5-27.8 49.6-27.8 36.1 0 63.4 23.8 63.4 75.1V384z"/></symbol>
    <symbol id="logo-whatsapp" viewBox="0 0 512 512"><path d="M260.062 32C138.605 32 40.134 129.701 40.134 250.232c0 41.23 11.532 79.79 31.559 112.687L32 480l121.764-38.682c31.508 17.285 67.745 27.146 106.298 27.146C381.535 468.464 480 370.749 480 250.232 480 129.701 381.535 32 260.062 32zm109.362 301.11c-5.174 12.827-28.574 24.533-38.899 25.072-10.314.547-10.608 7.994-66.84-16.434-56.225-24.434-90.052-83.844-92.719-87.67-2.669-3.812-21.78-31.047-20.749-58.455 1.038-27.413 16.047-40.346 21.404-45.725 5.351-5.387 11.486-6.352 15.232-6.413 4.428-.072 7.296-.132 10.573-.011 3.274.124 8.192-.685 12.45 10.639 4.256 11.323 14.443 39.153 15.746 41.989 1.302 2.839 2.108 6.126.102 9.771-2.012 3.653-3.042 5.935-5.961 9.083-2.935 3.148-6.174 7.042-8.792 9.449-2.92 2.665-5.97 5.572-2.9 11.269 3.068 5.693 13.653 24.356 29.779 39.736 20.725 19.771 38.598 26.329 44.098 29.317 5.515 3.004 8.806 2.67 12.226-.929 3.404-3.599 14.639-15.746 18.596-21.169 3.955-5.438 7.661-4.373 12.742-2.329 5.078 2.052 32.157 16.556 37.673 19.551 5.51 2.989 9.193 4.529 10.51 6.9 1.317 2.38.901 13.531-4.271 26.359z"/></symbol>
    <symbol id="logo-instagram" viewBox="0 0 512 512"><path d="M336 96c21.2 0 41.3 8.4 56.5 23.5S416 154.8 416 176v160c0 21.2-8.4 41.3-23.5 56.5S357.2 416 336 416H176c-21.2 0-41.3-8.4-56.5-23.5S96 357.2 96 336V176c0-21.2 8.4-41.3 23.5-56.5S154.8 96 176 96h160m0-32H176c-61.6 0-112 50.4-112 112v160c0 61.6 50.4 112 112 112h160c61.6 0 112-50.4 112-112V176c0-61.6-50.4-112-112-112z"/><path d="M360 176c-13.3 0-24-10.7-24-24s10.7-24 24-24c13.2 0 24 10.7 24 24s-10.8 24-24 24zM256 192c35.3 0 64 28.7 64 64s-28.7 64-64 64-64-28.7-64-64 28.7-64 64-64m0-32c-53 0-96 43-96 96s43 96 96 96 96-43 96-96-43-96-96-96z"/></symbol>
    <symbol id="logo-google" viewBox="0 0 18 18"><g fill="none" fill-rule="evenodd"><path fill="#4285F4" d="M16.58 7.67H9v3h4.34a3.7 3.7 0 0 1-1.6 2.42v2.01h2.6a7.82 7.82 0 0 0 2.38-5.9c0-.56-.05-1-.14-1.53z"></path><path fill="#34A853" d="M9.02 17.05c2.17 0 3.98-.72 5.31-1.95l-2.6-2.01a4.82 4.82 0 0 1-7.2-2.54H1.85v2.08a8.02 8.02 0 0 0 7.17 4.42z"></path><path fill="#FBBC05" d="M4.53 10.55a4.82 4.82 0 0 1 0-3.05V5.42H1.85a8.02 8.02 0 0 0 0 7.2l2.68-2.07z"></path><path fill="#DB4437" d="M9.02 4.2c1.18 0 2.24.4 3.07 1.2l2.3-2.31A8.02 8.02 0 0 0 1.85 5.42L4.53 7.5c.63-1.9 2.4-3.3 4.5-3.3z"></path></g></symbol>
    <symbol id="logo-twitter" viewBox="0 0 512 512"><path d="M492 109.5c-17.4 7.7-36 12.9-55.6 15.3 20-12 35.4-31 42.6-53.6-18.7 11.1-39.4 19.2-61.5 23.5C399.8 75.8 374.6 64 346.8 64c-53.5 0-96.8 43.4-96.8 96.9 0 7.6.8 15 2.5 22.1-80.5-4-151.9-42.6-199.6-101.3-8.3 14.3-13.1 31-13.1 48.7 0 33.6 17.2 63.3 43.2 80.7-16-.4-31-4.8-44-12.1v1.2c0 47 33.4 86.1 77.7 95-8.1 2.2-16.7 3.4-25.5 3.4-6.2 0-12.3-.6-18.2-1.8 12.3 38.5 48.1 66.5 90.5 67.3-33.1 26-74.9 41.5-120.3 41.5-7.8 0-15.5-.5-23.1-1.4C62.8 432 113.7 448 168.3 448 346.6 448 444 300.3 444 172.2c0-4.2-.1-8.4-.3-12.5C462.6 146 479 129 492 109.5z"/></symbol>
    <symbol id="logo-website" viewBox="0 0 512 512"><path d="M256 48C141.124 48 48 141.125 48 256s93.124 208 208 208c114.875 0 208-93.125 208-208S370.875 48 256 48zm-21.549 384.999c-39.464-4.726-75.978-22.392-104.519-50.932C96.258 348.393 77.714 303.622 77.714 256c0-42.87 15.036-83.424 42.601-115.659.71 8.517 2.463 17.648 2.014 24.175-1.64 23.795-3.988 38.687 9.94 58.762 5.426 7.819 6.759 19.028 9.4 28.078 2.583 8.854 12.902 13.498 20.019 18.953 14.359 11.009 28.096 23.805 43.322 33.494 10.049 6.395 16.326 9.576 13.383 21.839-2.367 9.862-3.028 15.937-8.13 24.723-1.557 2.681 5.877 19.918 8.351 22.392 7.498 7.497 14.938 14.375 23.111 21.125 12.671 10.469-1.231 24.072-7.274 39.117zm147.616-50.932c-25.633 25.633-57.699 42.486-92.556 49.081 4.94-12.216 13.736-23.07 21.895-29.362 7.097-5.476 15.986-16.009 19.693-24.352 3.704-8.332 8.611-15.555 13.577-23.217 7.065-10.899-17.419-27.336-25.353-30.781-17.854-7.751-31.294-18.21-47.161-29.375-11.305-7.954-34.257 4.154-47.02-1.417-17.481-7.633-31.883-20.896-47.078-32.339-15.68-11.809-14.922-25.576-14.922-42.997 12.282.453 29.754-3.399 37.908 6.478 2.573 3.117 11.42 17.042 17.342 12.094 4.838-4.043-3.585-20.249-5.212-24.059-5.005-11.715 11.404-16.284 19.803-24.228 10.96-10.364 34.47-26.618 32.612-34.047s-23.524-28.477-36.249-25.193c-1.907.492-18.697 18.097-21.941 20.859.086-5.746.172-11.491.26-17.237.055-3.628-6.768-7.352-6.451-9.692.8-5.914 17.262-16.647 21.357-21.357-2.869-1.793-12.659-10.202-15.622-8.968-7.174 2.99-15.276 5.05-22.45 8.039 0-2.488-.302-4.825-.662-7.133a176.585 176.585 0 0 1 45.31-13.152l14.084 5.66 9.944 11.801 9.924 10.233 8.675 2.795 13.779-12.995L282 87.929V79.59c27.25 3.958 52.984 14.124 75.522 29.8-4.032.361-8.463.954-13.462 1.59-2.065-1.22-4.714-1.774-6.965-2.623 6.531 14.042 13.343 27.89 20.264 41.746 7.393 14.801 23.793 30.677 26.673 46.301 3.394 18.416 1.039 35.144 2.896 56.811 1.788 20.865 23.524 44.572 23.524 44.572s10.037 3.419 18.384 2.228c-7.781 30.783-23.733 59.014-46.769 82.052z"/></symbol>
    <symbol id="logo-github" viewBox="0 0 512 512"><path d="M256 32C132.3 32 32 134.9 32 261.7c0 101.5 64.2 187.5 153.2 217.9 1.4.3 2.6.4 3.8.4 8.3 0 11.5-6.1 11.5-11.4 0-5.5-.2-19.9-.3-39.1-8.4 1.9-15.9 2.7-22.6 2.7-43.1 0-52.9-33.5-52.9-33.5-10.2-26.5-24.9-33.6-24.9-33.6-19.5-13.7-.1-14.1 1.4-14.1h.1c22.5 2 34.3 23.8 34.3 23.8 11.2 19.6 26.2 25.1 39.6 25.1 10.5 0 20-3.4 25.6-6 2-14.8 7.8-24.9 14.2-30.7-49.7-5.8-102-25.5-102-113.5 0-25.1 8.7-45.6 23-61.6-2.3-5.8-10-29.2 2.2-60.8 0 0 1.6-.5 5-.5 8.1 0 26.4 3.1 56.6 24.1 17.9-5.1 37-7.6 56.1-7.7 19 .1 38.2 2.6 56.1 7.7 30.2-21 48.5-24.1 56.6-24.1 3.4 0 5 .5 5 .5 12.2 31.6 4.5 55 2.2 60.8 14.3 16.1 23 36.6 23 61.6 0 88.2-52.4 107.6-102.3 113.3 8 7.1 15.2 21.1 15.2 42.5 0 30.7-.3 55.5-.3 63 0 5.4 3.1 11.5 11.4 11.5 1.2 0 2.6-.1 4-.4C415.9 449.2 480 363.1 480 261.7 480 134.9 379.7 32 256 32z"/></symbol>
    <symbol id="logo-spotify" viewBox="0 0 1792 1792"><path d="M1255 1210q0-32-30-51-193-115-447-115-133 0-287 34-42 9-42 52 0 20 13.5 34.5T498 1179q5 0 37-8 132-27 243-27 226 0 397 103 19 11 33 11 19 0 33-13.5t14-34.5zm96-215q0-40-35-61-237-141-548-141-153 0-303 42-48 13-48 64 0 25 17.5 42.5T477 959q7 0 37-8 122-33 251-33 279 0 488 124 24 13 38 13 25 0 42.5-17.5T1351 995zm108-248q0-47-40-70-126-73-293-110.5T783 529q-204 0-364 47-23 7-38.5 25.5T365 650q0 31 20.5 52t51.5 21q11 0 40-8 133-37 307-37 159 0 309.5 34t253.5 95q21 12 40 12 29 0 50.5-20.5T1459 747zm205 149q0 209-103 385.5T1281.5 1561 896 1664t-385.5-103T231 1281.5 128 896t103-385.5T510.5 231 896 128t385.5 103T1561 510.5 1664 896z"/></symbol>
    <symbol id="mail" viewBox="0 0 512 512"><path d="M437.332 80H74.668C51.199 80 32 99.198 32 122.667v266.666C32 412.802 51.199 432 74.668 432h362.664C460.801 432 480 412.802 480 389.333V122.667C480 99.198 460.801 80 437.332 80zM432 170.667L256 288 80 170.667V128l176 117.333L432 128v42.667z"/></symbol>
    <symbol id="arrow-back" viewBox="0 0 512 512"><path d="M217.9 256L345 129c9.4-9.4 9.4-24.6 0-33.9-9.4-9.4-24.6-9.3-34 0L167 239c-9.1 9.1-9.3 23.7-.7 33.1L310.9 417c4.7 4.7 10.9 7 17 7s12.3-2.3 17-7c9.4-9.4 9.4-24.6 0-33.9L217.9 256z"/></symbol>
    <symbol id="call" viewBox="0 0 512 512"><path d="M426.666 330.667a250.385 250.385 0 0 1-75.729-11.729c-7.469-2.136-16-1.073-21.332 5.333l-46.939 46.928c-60.802-30.928-109.864-80-140.802-140.803l46.939-46.927c5.332-5.333 7.462-13.864 5.332-21.333-8.537-24.531-12.802-50.136-12.802-76.803C181.333 73.604 171.734 64 160 64H85.333C73.599 64 64 73.604 64 85.333 64 285.864 226.136 448 426.666 448c11.73 0 21.334-9.604 21.334-21.333V352c0-11.729-9.604-21.333-21.334-21.333z"/></symbol>
    <symbol id="funnel" viewBox="0 0 512 512"><path d="M208 400h96v-47.994h-96V400zM32 112v47.994h448V112H32zm80 168.783h288v-49.555H112v49.555z"/></symbol>
    <symbol id="paper" viewBox="0 0 512 512"><path d="M464 64H192c-8.8 0-16 7.7-16 16.5V112H74c-23.1 0-42 18.9-42 42v207.5c0 47.6 39 86.5 86 86.5h279.7c45.1 0 82.3-36.9 82.3-82V80c0-8.8-7.2-16-16-16zm-288 80v192h-42V163.2c0-6.8-.8-13.3-3.3-19.2H176zm-17 255.4C148 410 133.2 416 118.5 416c-14.5 0-28.1-5.7-38.5-16-10.3-10.3-16-24-16-38.5V163.2c0-10.6 8.4-19.2 19-19.2s19 8.6 19 19.2V352c0 8.8 7.2 16 16 16h57.5c-1.5 11.6-7.2 22.6-16.5 31.4zM448 366c0 13.3-5.4 25.8-14.9 35.3-9.5 9.5-22.2 14.7-35.4 14.7H187.3c12.8-14.9 20.7-33.9 20.7-54.5V97h240v269z"/><path d="M248 136h160v56H248zM248 224h160v32H248zM248 288h160v32H248zM408 352H248s0 32-8 32h148.7c19.3 0 19.3-21 19.3-32z"/></symbol>
    <symbol id="people" viewBox="0 0 512 512"><path d="M337.454 232c33.599 0 61.092-27.002 61.092-60 0-32.997-27.493-60-61.092-60s-61.09 27.003-61.09 60c0 32.998 27.491 60 61.09 60zm-162.908 0c33.599 0 61.09-27.002 61.09-60 0-32.997-27.491-60-61.09-60s-61.092 27.003-61.092 60c0 32.998 27.493 60 61.092 60zm0 44C126.688 276 32 298.998 32 346v54h288v-54c0-47.002-97.599-70-145.454-70zm162.908 11.003c-6.105 0-10.325 0-17.454.997 23.426 17.002 32 28 32 58v54h128v-54c0-47.002-94.688-58.997-142.546-58.997z"/></symbol>
    <symbol id="person" viewBox="0 0 512 512"><path d="M256 256c52.805 0 96-43.201 96-96s-43.195-96-96-96-96 43.201-96 96 43.195 96 96 96zm0 48c-63.598 0-192 32.402-192 96v48h384v-48c0-63.598-128.402-96-192-96z"/></symbol>
    <symbol id="settings" viewBox="0 0 512 512"><path d="M413.967 276.8c1.06-6.235 1.06-13.518 1.06-20.8s-1.06-13.518-1.06-20.8l44.667-34.318c4.26-3.118 5.319-8.317 2.13-13.518L418.215 115.6c-2.129-4.164-8.507-6.235-12.767-4.164l-53.186 20.801c-10.638-8.318-23.394-15.601-36.16-20.801l-7.448-55.117c-1.06-4.154-5.319-8.318-10.638-8.318h-85.098c-5.318 0-9.577 4.164-10.637 8.318l-8.508 55.117c-12.767 5.2-24.464 12.482-36.171 20.801l-53.186-20.801c-5.319-2.071-10.638 0-12.767 4.164L49.1 187.365c-2.119 4.153-1.061 10.399 2.129 13.518L96.97 235.2c0 7.282-1.06 13.518-1.06 20.8s1.06 13.518 1.06 20.8l-44.668 34.318c-4.26 3.118-5.318 8.317-2.13 13.518L92.721 396.4c2.13 4.164 8.508 6.235 12.767 4.164l53.187-20.801c10.637 8.318 23.394 15.601 36.16 20.801l8.508 55.117c1.069 5.2 5.318 8.318 10.637 8.318h85.098c5.319 0 9.578-4.164 10.638-8.318l8.518-55.117c12.757-5.2 24.464-12.482 36.16-20.801l53.187 20.801c5.318 2.071 10.637 0 12.767-4.164l42.549-71.765c2.129-4.153 1.06-10.399-2.13-13.518l-46.8-34.317zm-158.499 52c-41.489 0-74.46-32.235-74.46-72.8s32.971-72.8 74.46-72.8 74.461 32.235 74.461 72.8-32.972 72.8-74.461 72.8z"/></symbol>
    <symbol id="notifications" viewBox="0 0 512 512"><path d="M256 464c22.779 0 41.411-18.719 41.411-41.6h-82.823c0 22.881 18.633 41.6 41.412 41.6zm134.589-124.8V224.8c0-63.44-44.516-117.518-103.53-131.041V79.2c0-17.682-13.457-31.2-31.059-31.2s-31.059 13.518-31.059 31.2v14.559c-59.015 13.523-103.53 67.601-103.53 131.041v114.4L80 380.8v20.8h352v-20.8l-41.411-41.6z"/></symbol>
    <symbol id="checkmark" viewBox="0 0 512 512"><path d="M186.301 339.893L96 249.461l-32 30.507L186.301 402 448 140.506 416 110z"/></symbol>
        <symbol id="alert" viewBox="0 0 512 512"><path d="M256 48C141.6 48 48 141.601 48 256s93.6 208 208 208 208-93.601 208-208S370.4 48 256 48zm24 312h-48v-40h48v40zm0-88h-48V144h48v128z"/></symbol>
    <symbol id="close" viewBox="0 0 512 512"><path d="M405 136.798L375.202 107 256 226.202 136.798 107 107 136.798 226.202 256 107 375.202 136.798 405 256 285.798 375.202 405 405 375.202 285.798 256z"/></symbol>
    <symbol id="trash" viewBox="0 0 512 512"><path d="M128 405.429C128 428.846 147.198 448 170.667 448h170.667C364.802 448 384 428.846 384 405.429V160H128v245.429zM416 96h-80l-26.785-32H202.786L176 96H96v32h320V96z"/></symbol>
    <symbol id="warning" viewBox="0 0 512 512"><path d="M32 464h448L256 48 32 464zm248-64h-48v-48h48v48zm0-80h-48v-96h48v96z"/></symbol>
    <symbol id="more" viewBox="0 0 512 512"><path d="M296 136c0-22.002-17.998-40-40-40s-40 17.998-40 40 17.998 40 40 40 40-17.998 40-40zm0 240c0-22.002-17.998-40-40-40s-40 17.998-40 40 17.998 40 40 40 40-17.998 40-40zm0-120c0-22.002-17.998-40-40-40s-40 17.998-40 40 17.998 40 40 40 40-17.998 40-40z"/></symbol>
    <symbol id="more-horizontal" viewBox="0 0 24 24"><path d="M0 0h24v24H0z" fill="none"/><path d="M6 10c-1.1 0-2 .9-2 2s.9 2 2 2 2-.9 2-2-.9-2-2-2zm12 0c-1.1 0-2 .9-2 2s.9 2 2 2 2-.9 2-2-.9-2-2-2zm-6 0c-1.1 0-2 .9-2 2s.9 2 2 2 2-.9 2-2-.9-2-2-2z"/></symbol>
    <symbol id="create" viewBox="0 0 512 512"><path d="M64 368v80h80l235.727-235.729-79.999-79.998L64 368zm377.602-217.602c8.531-8.531 8.531-21.334 0-29.865l-50.135-50.135c-8.531-8.531-21.334-8.531-29.865 0l-39.468 39.469 79.999 79.998 39.469-39.467z"/></symbol>
    <symbol id="add" viewBox="0 0 512 512"><path d="M416 277.333H277.333V416h-42.666V277.333H96v-42.666h138.667V96h42.666v138.667H416v42.666z"/></symbol>
    <symbol id="delete" viewBox="0 0 1024 1024"><path d="M896 149H341q-9 0-18 3.5t-16 9.5L9 503q-10 13-10 28t10 28l298 341q7 10 16 13.5t18 3.5h555q54 0 91-36.5t37-91.5V277q0-54-37-91t-91-37zm43 640q0 20-12 31.5T896 832H363L102 533l261-298h533q19 0 31 11.5t12 30.5v512zM798 375q-13-12-30-12t-30 12l-98 99-98-99q-13-12-30-12t-30 12q-13 13-13 30t13 30l98 98-98 98q-13 13-13 30t13 30q7 7 15.5 10t14.5 3 14.5-3 15.5-10l98-98 98 98q7 7 15.5 10t14.5 3 14.5-3 15.5-10q13-13 13-30t-13-30l-98-98 98-98q13-13 13-30t-13-30z"/></symbol>
    <symbol id="archive" viewBox="0 0 512 512"><path d="M453.594 100.001l-32.353-39.299C415.469 52.627 405.083 48 394.664 48H117.335c-10.416 0-20.801 4.627-26.576 12.702l-32.351 39.299C51.468 106.923 48 117.335 48 128.886v288.89C48 443.2 68.8 464 94.225 464h323.553C443.202 464 464 443.2 464 417.775v-288.89c0-11.55-3.463-21.962-10.406-28.884zM256 383.109L128.89 256h80.89v-46.224h92.443V256h80.89L256 383.109zM96.534 94.221L115.02 71.11h277.331l21.965 23.111H96.534z"/></symbol>
    <symbol id="search" viewBox="0 0 1024 1024"><path d="M926 887L768 730q38-48 61.5-110T853 491q0-80-30-150t-82-122-122-82-150-30-150 30-122 82-82 122-30 150 30 150 82 122 122 82 150 30q68 0 129.5-22T708 789l158 158q7 7 15.5 10t14.5 3 14.5-3 15.5-10q13-13 13-30t-13-30zM171 491q0-63 23-117 23-55 63.5-95t94.5-64q55-23 117-23 63 0 117 23 55 24 95 64t64 95q23 54 23 117 0 60-23.5 115T683 700q-42 41-95.5 63T474 785q-64 2-120-21-55-22-96-62t-64-95q-23-54-23-116z"/></symbol>
    <symbol id="lock" viewBox="0 0 512 512"><path d="M376 186h-20v-40c0-55-45-100-100-100S156 91 156 146v40h-20c-22.002 0-40 17.998-40 40v200c0 22.002 17.998 40 40 40h240c22.002 0 40-17.998 40-40V226c0-22.002-17.998-40-40-40zM256 368c-22.002 0-40-17.998-40-40s17.998-40 40-40 40 17.998 40 40-17.998 40-40 40zm62.002-182H193.998v-40c0-34.004 28.003-62.002 62.002-62.002 34.004 0 62.002 27.998 62.002 62.002v40z"/></symbol>
    <symbol id="compass" viewBox="0 0 512 512"><path d="M256 231.358c-13.442 0-24.643 11.2-24.643 24.642s11.2 24.643 24.643 24.643 24.643-11.2 24.643-24.643-11.201-24.642-24.643-24.642zM256 32C132.8 32 32 132.8 32 256s100.8 224 224 224 224-100.8 224-224S379.2 32 256 32zm49.284 273.284L121.6 390.4l85.116-183.679L390.4 121.6l-85.116 183.684z"/></symbol>
    <symbol viewBox="0 0 36 36" id="love"><path d="M35.885 11.833c0-5.45-4.418-9.868-9.867-9.868-3.308 0-6.227 1.633-8.018 4.129-1.791-2.496-4.71-4.129-8.017-4.129-5.45 0-9.868 4.417-9.868 9.868 0 .772.098 1.52.266 2.241C1.751 22.587 11.216 31.568 18 34.034c6.783-2.466 16.249-11.447 17.617-19.959.17-.721.268-1.469.268-2.242z"/></symbol>
    <symbol viewBox="10 10 40 40" id="i-pointer-l" width="100%" height="100%"><path d="M36.5 39.3c1.2 2.1 3.6 5.9 4.1 9.2-2.8.7-5.6 1.2-8.8.5 2-2 5.1 0 7.1-1.7-8.4-1.1-15.2-12-17.9-18.4-1.9-4.5-2.6-14.2.2-18.3-1.5 14.6 2.9 28.2 16.5 35.3-.2-2.3-2-3.9-1.2-6.6z"></path></symbol>
    <symbol viewBox="10 10 40 40" id="i-pointer-r" width="100%" height="100%"><path d="M23.5 39.3c-1.2 2.1-3.6 5.9-4.1 9.2 2.8.7 5.6 1.2 8.8.5-2-2-5.1 0-7.1-1.7 8.4-1.1 15.2-12 17.9-18.4 1.9-4.5 2.6-14.2-.2-18.3 1.5 14.6-2.9 28.2-16.5 35.3.2-2.3 2-3.9 1.2-6.6z"></path></symbol>
    <symbol id="briefcase" viewBox="0 0 512 512"><path d="M352 144v-39.6C352 82 334 64 311.6 64H200.4C178 64 160 82 160 104.4V144H48v263.6C48 430 66 448 88.4 448h335.2c22.4 0 40.4-18 40.4-40.4V144H352zm-40 0H200v-40h112v40z"/></symbol>
    <symbol id="bookmark" viewBox="0 0 512 512"><path d="M360 64H152c-22.002 0-40 17.998-40 40v344l144-64 144 64V104c0-22.002-17.998-40-40-40z"/></symbol>
    <symbol id="chatbubbles" viewBox="0 0 512 512"><path d="M132.8 368c-20.2 0-44.8-24.6-44.8-44.8V160h-9.6C61.7 160 48 173.7 48 190.4V464l58.5-58h215.1c16.7 0 30.4-14.1 30.4-30.9V368H132.8z"/><path d="M429.1 48H149.9C130.7 48 115 63.7 115 82.9V309c0 19.2 15.7 35 34.9 35h238.2l75.9 53V82.9c0-19.2-15.7-34.9-34.9-34.9z"/></symbol>

    <symbol id="finger-print" viewBox="0 0 512 512"><path d="M78.1 205.6c-2.4 0-4.9-.6-7.1-1.9-6.7-3.9-9-12.4-5.1-19.1 17.8-30 71.9-100.1 190.1-100.1 51.2 0 96.1 13.6 133.4 40.4 30.7 22 47.9 46.9 56.1 58.9 4.4 6.4 2.7 15-3.7 19.4-6.4 4.3-15.2 2.7-19.6-3.7-14.9-21.6-60.1-87.2-166.2-87.2-103.6 0-150.4 60.4-165.7 86.3-2.6 4.6-7.3 7-12.2 7z"/><path d="M315.5 480c-1.2 0-2.3-.1-3.5-.4-85.7-21.5-117.7-108.1-119-111.7l-.2-.8c-.7-2.5-17.9-61.9 8.5-96.7 12.1-15.9 30.5-24 54.8-24 22.6 0 38.9 7.1 50.1 21.8 9.2 12 12.9 26.8 16.5 41.1 7.5 29.7 12.9 45.3 44.1 46.9 13.7.7 22.7-7.4 27.8-14.3 13.8-18.8 16.2-49.5 5.8-76.5-13.4-35-60.8-100.9-144.4-100.9-35.7 0-68.5 11.6-94.8 33.4-21.8 18.1-39.1 43.6-47.4 69.8-15.4 48.8 4.8 125.5 5 126.2 2 7.4-2.5 15.1-10 17-7.5 2-15.3-2.5-17.3-9.9-.9-3.5-22.5-85.3-4.7-141.7C106.2 198.2 166 136.6 256 136.6c41.6 0 80.9 14.3 113.7 41.3 25.4 21 46.2 49.2 57 77.4 13.8 36 10.1 76.4-9.4 102.8-13 17.6-31.5 26.8-52 25.8-53.4-2.7-63-40.4-70-67.9-7.2-28.2-11.8-41.8-39.3-41.8-15.1 0-25.7 4.2-32.3 12.9-9 11.9-9.7 30.5-8.7 44 1 14.1 4 25.5 4.7 27.8 2.2 5.6 30.8 76.5 99.3 93.7 7.6 1.9 12.1 9.5 10.2 16.9-1.7 6.3-7.4 10.5-13.7 10.5z"/><path d="M205.5 473.6c-3.8 0-7.5-1.5-10.3-4.4-34.3-36.4-53.7-77.1-61-128v-.3c-4.1-33.7 1.9-81.4 31.3-114.2 21.7-24.2 52.2-36.5 90.5-36.5 45.3 0 80.9 21.3 103.1 61.5 16.1 29.2 19.3 58.3 19.4 59.5.8 7.7-4.9 14.5-12.6 15.3-7.7.8-14.7-4.8-15.5-12.4 0-.3-2.8-25.3-16.5-49.7-17.2-30.7-43.4-46.3-78-46.3-29.9 0-53.3 9.1-69.4 27.1-23.2 25.9-27.7 65.8-24.5 92.2 6.4 45 23.5 80.8 53.7 112.8 5.3 5.6 5 14.5-.7 19.7-2.6 2.4-6.1 3.7-9.5 3.7z"/><path d="M363.5 433.5c-30 0-55.5-8.4-75.9-25.1-41-33.4-45.6-87.8-45.8-90.1-.6-7.7 5.2-14.4 13-15 7.8-.6 14.5 5.1 15.1 12.8.1.8 4.2 45.3 35.8 70.9 18.7 15.1 43.7 21.1 74.5 17.6 7.7-.9 14.7 4.6 15.6 12.3.9 7.7-4.7 14.6-12.4 15.4-6.8.8-13.5 1.2-19.9 1.2zM387.2 62.6C375.5 54.9 334 32 256 32c-81.9 0-123.5 25.3-132.7 31.7-.6.4-1.2.8-1.7 1.3-.1.1-.2.1-.2.1-2.9 2.6-4.7 6.3-4.7 10.4 0 7.7 6.3 13.9 14.1 13.9 3.1 0 5.9-1 8.2-2.6l-.1.1c.4-.3 36.3-27 117.1-27s116.7 26.8 117.1 27l-.1-.1.2-.2c2.4 1.8 5.3 2.8 8.5 2.8 7.8 0 14.1-6.2 14.1-13.9 0-5.8-3.5-10.8-8.6-12.9z"/></symbol>
    <symbol id="sad" viewBox="0 0 512 512"><path d="M256 48C141.1 48 48 141.1 48 256c0 114.7 93.3 208 208 208 114.9 0 208-93.1 208-208 0-114.7-93.3-208-208-208zm-73.9 152.1c14.8-1.2 27 11.1 25.9 25.9-.9 11.6-10.3 21.1-22 22-14.8 1.2-27-11.1-25.9-25.9.9-11.7 10.3-21.1 22-22zm-.7 151.9c-11.5 0-19.3-11.8-14.7-22.4 15-34.5 49.2-58.6 89.3-58.6s74.2 24.1 89.3 58.6c4.6 10.6-3.1 22.4-14.7 22.4 0 0-34.7-4-73.1-4-38.5 0-76.1 4-76.1 4zm148.5-104.1c-14.8 1.2-27-11.1-25.9-25.9.9-11.6 10.3-21.1 22-22 14.8-1.2 27 11.1 25.9 25.9-.9 11.7-10.3 21.1-22 22z"/></symbol>
    <symbol id="eye" viewBox="0 0 512 512"><path d="M255.8 112c-80.4 0-143.8 50.6-219.6 133.3-5.5 6.1-5.6 15.2-.1 21.3C101 338.3 158.2 400 255.8 400c96.4 0 168.7-77.7 220.1-134 5.3-5.8 5.6-14.6.5-20.7C424 181.8 351.5 112 255.8 112zm4.4 233.9c-53 2.4-96.6-41.2-94.1-94.1 2.1-46.2 39.5-83.6 85.7-85.7 53-2.4 96.6 41.2 94.1 94.1-2.1 46.2-39.5 83.6-85.7 85.7z"/><path d="M256 209c0-6 1.1-11.7 3.1-16.9-1 0-2-.1-3.1-.1-36.9 0-66.6 31.4-63.8 68.9 2.4 31.3 27.6 56.5 58.9 58.9 37.5 2.8 68.9-26.9 68.9-63.8 0-1.3-.1-2.6-.1-3.9-5.6 2.5-11.7 3.9-18.2 3.9-25.2 0-45.7-21.1-45.7-47z"/></symbol>
    <symbol id="eye-off" viewBox="0 0 512 512"><path d="M88.3 68.1c-5.6-5.5-14.6-5.5-20.1.1-5.5 5.5-5.5 14.5 0 20l355.5 355.7c3.7 3.7 9 4.9 13.7 3.6 2.4-.6 4.6-1.9 6.4-3.7 5.5-5.5 5.5-14.5 0-20L88.3 68.1zM260.2 345.9c-53 2.4-96.6-41.2-94.1-94.1.6-12.2 3.6-23.8 8.6-34.3L121.3 164c-27.7 21.4-55.4 48.9-85.1 81.3-5.5 6.1-5.6 15.2-.1 21.3C101 338.3 158.2 400 255.8 400c29.7 0 57.1-7.4 82.3-19.2l-43.5-43.5c-10.6 5-22.2 8-34.4 8.6zM475.8 266c5.3-5.8 5.6-14.6.5-20.7C424 181.8 351.5 112 255.8 112c-29.1 0-56 6.6-82 19l43.7 43.7c10.5-5 22.1-8.1 34.3-8.6 53-2.4 96.6 41.2 94.1 94.1-.6 12.2-3.6 23.8-8.6 34.3l53.5 53.5c33-25.3 61.3-55.9 85-82z"/><path d="M192.2 260.9c2.4 31.3 27.6 56.5 58.9 58.9 8.2.6 16.1-.3 23.4-2.6l-79.8-79.8c-2.2 7.4-3.1 15.3-2.5 23.5zM320 256c0-1.3-.1-2.6-.1-3.9-5.6 2.5-11.7 3.9-18.2 3.9-1.1 0-2.1 0-3.1-.1l18.6 18.7c1.8-5.9 2.8-12.2 2.8-18.6zM256 209c0-6 1.1-11.7 3.1-16.9-1 0-2-.1-3.1-.1-6.4 0-12.6 1-18.5 2.8l18.7 18.7c-.1-1.5-.2-3-.2-4.5z"/></symbol>
</svg>
